REM DIRINDEX 1\2\6,1\2\7,1\2\8,1\2\9,1\3\10,1\3\11,1\4\12,1\4\13,1\4\14,1\5\15,1\5\16,1\5\17
REM DIRNAME cjc020,folder01,folder02,folder03,folder04,folder05,folder06,folder07,folder08,folder09,folder10,folder11,folder12,folder13,folder14,folder15,folder16
TITLE ""
FILE "1900_3_060 sec10_0985_1000.mp3" MP3
  TRACK 01 AUDIO
    TITLE "0:"
    INDEX 01 00:00:00
  TRACK 02 AUDIO
    TITLE "17:cjc020_7946"
    INDEX 01 00:00:13
  TRACK 03 AUDIO
    TITLE "0:"
    INDEX 01 00:01:34
  TRACK 04 AUDIO
    TITLE "16:cjc020_7947"
    INDEX 01 00:01:36
  TRACK 05 AUDIO
    TITLE "0:"
    INDEX 01 00:02:65
  TRACK 06 AUDIO
    TITLE "17:cjc020_7948"
    INDEX 01 00:03:51
  TRACK 07 AUDIO
    TITLE "0:"
    INDEX 01 00:05:03
  TRACK 08 AUDIO
    TITLE "16:cjc020_7949"
    INDEX 01 00:05:09
  TRACK 09 AUDIO
    TITLE "0:"
    INDEX 01 00:06:39
  TRACK 10 AUDIO
    TITLE "17:cjc020_7950"
    INDEX 01 00:07:21
  TRACK 11 AUDIO
    TITLE "0:"
    INDEX 01 00:08:30
  TRACK 12 AUDIO
    TITLE "16:cjc020_7951"
    INDEX 01 00:08:34
  TRACK 13 AUDIO
    TITLE "0:"
    INDEX 01 00:09:49
  TRACK 14 AUDIO
    TITLE "17:cjc020_7952"
    INDEX 01 00:10:31
  TRACK 15 AUDIO
    TITLE "0:"
    INDEX 01 00:11:52
  TRACK 16 AUDIO
    TITLE "16:cjc020_7953"
    INDEX 01 00:11:56
  TRACK 17 AUDIO
    TITLE "0:"
    INDEX 01 00:12:71
  TRACK 18 AUDIO
    TITLE "17:cjc020_7954"
    INDEX 01 00:13:53
  TRACK 19 AUDIO
    TITLE "0:"
    INDEX 01 00:14:60
  TRACK 20 AUDIO
    TITLE "16:cjc020_7955"
    INDEX 01 00:14:68
  TRACK 21 AUDIO
    TITLE "0:"
    INDEX 01 00:16:02
  TRACK 22 AUDIO
    TITLE "17:cjc020_7956"
    INDEX 01 00:16:59
  TRACK 23 AUDIO
    TITLE "0:"
    INDEX 01 00:17:63
  TRACK 24 AUDIO
    TITLE "16:cjc020_7957"
    INDEX 01 00:17:72
  TRACK 25 AUDIO
    TITLE "0:"
    INDEX 01 00:19:07
  TRACK 26 AUDIO
    TITLE "17:cjc020_7958"
    INDEX 01 00:19:67
  TRACK 27 AUDIO
    TITLE "0:"
    INDEX 01 00:21:00
  TRACK 28 AUDIO
    TITLE "16:cjc020_7959"
    INDEX 01 00:21:04
  TRACK 29 AUDIO
    TITLE "0:"
    INDEX 01 00:22:23
  TRACK 30 AUDIO
    TITLE "17:cjc020_7960"
    INDEX 01 00:23:06
  TRACK 31 AUDIO
    TITLE "0:"
    INDEX 01 00:24:20
  TRACK 32 AUDIO
    TITLE "16:cjc020_7961"
    INDEX 01 00:24:22
  TRACK 33 AUDIO
    TITLE "0:"
    INDEX 01 00:25:23
  TRACK 34 AUDIO
    TITLE "17:cjc020_7962"
    INDEX 01 00:26:07
  TRACK 35 AUDIO
    TITLE "0:"
    INDEX 01 00:27:26
  TRACK 36 AUDIO
    TITLE "16:cjc020_7963"
    INDEX 01 00:27:28
  TRACK 37 AUDIO
    TITLE "0:"
    INDEX 01 00:28:41
  TRACK 38 AUDIO
    TITLE "17:cjc020_7964"
    INDEX 01 00:29:27
  TRACK 39 AUDIO
    TITLE "0:"
    INDEX 01 00:30:48
  TRACK 40 AUDIO
    TITLE "16:cjc020_7965"
    INDEX 01 00:30:54
  TRACK 41 AUDIO
    TITLE "0:"
    INDEX 01 00:31:69
  TRACK 42 AUDIO
    TITLE "17:cjc020_7966"
    INDEX 01 00:32:45
  TRACK 43 AUDIO
    TITLE "0:"
    INDEX 01 00:34:59
  TRACK 44 AUDIO
    TITLE "16:cjc020_7967"
    INDEX 01 00:34:65
  TRACK 45 AUDIO
    TITLE "0:"
    INDEX 01 00:36:13
  TRACK 46 AUDIO
    TITLE "17:cjc020_7968"
    INDEX 01 00:36:72
  TRACK 47 AUDIO
    TITLE "0:"
    INDEX 01 00:38:31
  TRACK 48 AUDIO
    TITLE "16:cjc020_7969"
    INDEX 01 00:38:35
  TRACK 49 AUDIO
    TITLE "0:"
    INDEX 01 00:39:58
  TRACK 50 AUDIO
    TITLE "17:cjc020_7970"
    INDEX 01 00:40:42
  TRACK 51 AUDIO
    TITLE "0:"
    INDEX 01 00:41:65
  TRACK 52 AUDIO
    TITLE "16:cjc020_7971"
    INDEX 01 00:41:69
  TRACK 53 AUDIO
    TITLE "0:"
    INDEX 01 00:43:29
  TRACK 54 AUDIO
    TITLE "17:cjc020_7972"
    INDEX 01 00:44:12
  TRACK 55 AUDIO
    TITLE "0:"
    INDEX 01 00:45:26
  TRACK 56 AUDIO
    TITLE "16:cjc020_7973"
    INDEX 01 00:45:33
  TRACK 57 AUDIO
    TITLE "0:"
    INDEX 01 00:46:64
  TRACK 58 AUDIO
    TITLE "17:cjc020_7974"
    INDEX 01 00:47:46
  TRACK 59 AUDIO
    TITLE "0:"
    INDEX 01 00:48:51
  TRACK 60 AUDIO
    TITLE "16:cjc020_7975"
    INDEX 01 00:48:55
  TRACK 61 AUDIO
    TITLE "0:"
    INDEX 01 00:50:09
  TRACK 62 AUDIO
    TITLE "17:cjc020_7976"
    INDEX 01 00:50:70
  TRACK 63 AUDIO
    TITLE "0:"
    INDEX 01 00:52:30
  TRACK 64 AUDIO
    TITLE "16:cjc020_7977"
    INDEX 01 00:52:34
  TRACK 65 AUDIO
    TITLE "0:"
    INDEX 01 00:53:58
